Coordinates
version=1
nRows=29
nColumns=24
inDegrees=yes

Units are S.I. units (second, meters, Newtons, ...)
Angles are in degrees.

endheader
time	pelvis_tilt	pelvis_list	pelvis_rotation	pelvis_tx	pelvis_ty	pelvis_tz	hip_flexion_r	hip_adduction_r	hip_rotation_r	knee_angle_r	ankle_angle_r	subtalar_angle_r	mtp_angle_r	hip_flexion_l	hip_adduction_l	hip_rotation_l	knee_angle_l	ankle_angle_l	subtalar_angle_l	mtp_angle_l	lumbar_extension	lumbar_bending	lumbar_rotation
      4.07500000	    -16.63992239	     -4.35374186	      5.39285767	     -2.03133891	     -0.03793733	     -0.30829326	     43.21770105	      1.16122718	    -20.17297709	    -13.73028934	     -0.29792689	     -3.02752593	     17.98478957	     -0.50183791	     -4.62693972	     -5.87778973	    -17.65441316	      7.79109071	     12.74600793	      8.95540885	     19.10325744	     -1.27187253	    -21.08625826
      4.08000000	    -16.65528228	     -4.62509852	      5.47692305	     -2.02367959	     -0.03891738	     -0.30788434	     43.26844471	      1.38208929	    -20.04197062	    -14.37264756	     -1.07236222	     -3.99789515	     17.97255932	     -0.52705156	     -5.11011762	     -5.87843601	    -18.43241258	      7.32838189	     13.19123992	      9.05481903	     19.25849354	     -0.97847179	    -21.17945256
      4.08500000	    -16.67522904	     -4.93155937	      5.63239313	     -2.01606913	     -0.03984157	     -0.30758337	     43.34243061	      1.57162105	    -19.99267224	    -15.07393967	     -1.92907389	     -5.02331021	     17.90698549	     -0.49025945	     -5.62521518	     -5.72645328	    -19.25544015	      6.78699208	     13.56734625	      9.25670647	     19.41366766	     -0.66936371	    -21.36185114
      4.09000000	    -16.69952799	     -5.21493829	      5.58300471	     -2.00840544	     -0.04078872	     -0.30694400	     43.44305899	      1.92341635	    -19.57365417	    -15.79207006	     -2.93452822	     -6.40041333	     17.80153519	     -0.45283443	     -6.16187968	     -5.99564005	    -20.11893853	      6.12481322	     14.09700420	      9.81126131	     19.57073215	     -0.32290903	    -21.30844979
      4.09500000	    -16.73579393	     -5.54732010	      5.62110322	     -2.00079110	     -0.04166351	     -0.30644624	     43.57673955	      2.24326743	    -19.24431603	    -16.57192482	     -3.93768306	     -7.78781817	     17.56177400	     -0.32967073	     -6.74432703	     -6.10191553	    -21.04172126	      5.35610052	     14.52012857	     10.50071156	     19.73846184	      0.04618622	    -21.35908687
      4.10000000	    -16.75865235	     -5.84209277	      5.60265137	     -1.99327114	     -0.04249133	     -0.30580898	     43.74624576	      2.57956530	    -18.80082389	    -17.45204533	     -4.91506287	     -9.23138265	     17.06504561	     -0.19808255	     -7.30453695	     -6.22567722	    -21.98180870	      4.44995520	     14.98671479	     11.55052683	     19.86651123	      0.39132164	    -21.33054091
      4.10500000	    -16.75006831	     -6.17262489	      5.64392659	     -1.98577826	     -0.04319569	     -0.30527857	     43.89467597	      2.91236549	    -18.34175655	    -18.40183476	     -5.73910513	    -10.55894519	     15.92079832	     -0.03010012	     -7.90434032	     -6.31772185	    -22.94414348	      3.28828596	     15.17237017	     13.27705595	     19.96065600	      0.75794559	    -21.42140538
      4.11000000	    -16.80874426	     -6.53253759	      5.63339764	     -1.97829269	     -0.04396422	     -0.30470171	     44.12904980	      3.30146198	    -17.82597169	    -19.35563239	     -6.51640548	    -11.99268786	     15.34188032	      0.29242204	     -8.54856474	     -6.48533131	    -24.12318563	      2.24087632	     15.61930909	     13.87319332	     20.12778307	      1.16527083	    -21.47531716
      4.11500000	    -16.77169896	     -6.79935949	      5.60887504	     -1.97099656	     -0.04459391	     -0.30398939	     44.31638049	      3.65252494	    -17.17274940	    -20.47471964	     -7.02314614	    -13.16790703	     13.54691499	      0.53419342	     -9.12053352	     -6.66483406	    -25.22178581	      0.85134372	     15.86688537	     15.89554536	     20.14356654	      1.48549075	    -21.45236635
      4.12000000	    -16.75451370	     -7.10405754	      5.60074111	     -1.96363379	     -0.04516171	     -0.30333347	     44.50373626	      4.02194212	    -16.62148254	    -21.56752609	     -7.38539062	    -14.26933872	     12.01693131	      0.86106000	     -9.72788481	     -6.78092906	    -26.41635907	     -0.63336759	     16.08471854	     17.41322812	     20.19880694	      1.83319396	    -21.48338857
      4.12500000	    -16.78211827	     -7.47292638	      5.56846273	     -1.95620507	     -0.04576016	     -0.30270697	     44.70555883	      4.45762873	    -16.11850528	    -22.58803930	     -7.63307843	    -15.34391401	     11.11080808	      1.30825757	    -10.40912506	     -6.92549662	    -27.74900689	     -2.13272250	     16.33487721	     18.36712001	     20.32075216	      2.25206230	    -21.54379354
      4.13000000	    -16.68610612	     -7.70316533	      5.55838414	     -1.94904793	     -0.04617393	     -0.30199864	     44.82478612	      4.77029592	    -15.71063282	    -23.76673052	     -7.56870823	    -16.03126989	      9.05879921	      1.65769393	    -10.95138164	     -7.00125504	    -28.98847296	     -3.98392303	     16.27470564	     20.71614578	     20.24393569	      2.53389168	    -21.48916349
      4.13500000	    -16.57852524	     -7.98535606	      5.58562188	     -1.94190599	     -0.04654325	     -0.30145383	     44.86930177	      5.10513838	    -15.31837620	    -24.83362503	     -7.32359101	    -16.57018316	      7.44678513	      2.08718912	    -11.52330074	     -6.97748645	    -30.35457664	     -5.84529685	     16.02328189	     22.47057475	     20.16090732	      2.86642071	    -21.58068408
      4.14000000	    -16.51370854	     -8.25066974	      5.58102166	     -1.93478854	     -0.04692558	     -0.30082117	     44.93437150	      5.43096444	    -15.07928683	    -25.85428147	     -7.00247958	    -17.06089383	      6.18431361	      2.61376223	    -12.08619857	     -6.97264385	    -31.78213885	     -7.77653759	     15.82724579	     24.07641442	     20.11765730	      3.18014304	    -21.59234810
      4.14500000	    -16.40165816	     -8.49619980	      5.62990388	     -1.92778167	     -0.04719430	     -0.30029087	     44.90004117	      5.70643324	    -14.90141968	    -26.80581178	     -6.50751539	    -17.36118864	      4.99306879	      3.15994933	    -12.59836708	     -6.82259656	    -33.23260490	     -9.79645242	     15.41319027	     25.72522952	     20.00776309	      3.46301465	    -21.68277781
      4.15000000	    -16.28009107	     -8.71424993	      5.67625830	     -1.92089242	     -0.04741827	     -0.29976983	     44.81870156	      5.95076604	    -14.81034144	    -27.69568246	     -5.91936187	    -17.53606800	      4.03050098	      3.75491095	    -13.06169886	     -6.62570775	    -34.73573702	    -11.81955503	     14.88210650	     27.17286093	     19.86574073	      3.72416599	    -21.75593646
      4.15500000	    -16.15591452	     -8.92320645	      5.75989616	     -1.91410016	     -0.04758451	     -0.29932110	     44.68189168	      6.15215242	    -14.83296778	    -28.48825911	     -5.26860066	    -17.67064652	      3.44429101	      4.42170979	    -13.48236771	     -6.31633980	    -36.30556547	    -13.78648719	     14.29013791	     28.17305494	     19.71379723	      3.96467366	    -21.87064591
      4.16000000	    -16.00763815	     -9.17668559	      5.70521213	     -1.90720409	     -0.04769662	     -0.29878293	     44.43813073	      6.50008663	    -14.81693791	    -29.11935391	     -4.65006118	    -17.80744359	      3.36986764	      5.04344621	    -13.95593507	     -6.17701752	    -37.92730827	    -15.57369040	     13.69113732	     28.31389544	     19.54654523	      4.31447663	    -21.79584235
      4.16500000	    -15.97523848	     -9.35968987	      5.85845532	     -1.90064168	     -0.04781976	     -0.29846253	     44.32005296	      6.57157304	    -15.10864058	    -29.79320135	     -3.84632713	    -17.57982386	      2.93539817	      5.93740487	    -14.26618951	     -5.64652405	    -39.53006532	    -17.38911877	     12.85630649	     29.39938985	     19.46904314	      4.49502362	    -21.94625168
      4.17000000	    -15.84937962	     -9.62663115	      5.76108332	     -1.89388859	     -0.04787157	     -0.29784857	     44.00396007	      6.97264795	    -15.10355099	    -30.25113151	     -3.16636849	    -17.58032352	      2.89869295	      6.65341772	    -14.73595700	     -5.53029146	    -41.18471401	    -18.85161853	     12.07644549	     29.52486518	     19.30946212	      4.86100151	    -21.85066971
      4.17500000	    -15.77003966	     -9.87009997	      5.78072064	     -1.88735119	     -0.04788427	     -0.29740377	     43.71657061	      7.22883232	    -15.31919054	    -30.67762767	     -2.43168837	    -17.40952712	      2.87085705	      7.52002396	    -15.11482895	     -5.19612844	    -42.86345523	    -20.11227442	     11.12263926	     29.71112806	     19.18098949	      5.15835496	    -21.85495134
      4.18000000	    -15.72611634	    -10.09946646	      5.79562329	     -1.88086297	     -0.04784593	     -0.29694115	     43.42170521	      7.47046586	    -15.55732736	    -31.03033399	     -1.68138050	    -17.14701996	      2.88592791	      8.44744716	    -15.45726085	     -4.84272214	    -44.52867090	    -21.13049221	     10.13809398	     29.82743999	     19.08834411	      5.42478352	    -21.84872762
      4.18500000	    -15.75107125	    -10.28177061	      5.87142954	     -1.87451877	     -0.04776997	     -0.29662000	     43.16977150	      7.60043713	    -15.85915687	    -31.34423069	     -0.90292351	    -16.75623703	      2.90191032	      9.50441740	    -15.67706182	     -4.33583091	    -46.18834687	    -21.88542702	      9.08151877	     29.87040449	     19.06094988	      5.63164221	    -21.86733129
      4.19000000	    -15.73271477	    -10.49597732	      5.84654669	     -1.86814893	     -0.04759069	     -0.29614914	     42.82272550	      7.86419160	    -16.07448148	    -31.54759193	     -0.23520563	    -16.47077227	      2.97551883	     10.48832852	    -15.97140929	     -4.03507133	    -47.83330611	    -22.32672982	      7.92462859	     29.63600225	     18.98773832	      5.90251429	    -21.78661921
      4.19500000	    -15.70290258	    -10.72375137	      5.76679349	     -1.86165832	     -0.04733635	     -0.29557590	     42.39439351	      8.21630365	    -16.18850056	    -31.63087264	      0.44776919	    -16.21961015	      3.08591736	     11.41719936	    -16.29365234	     -3.82546136	    -49.40780059	    -22.42708914	      6.69394948	     29.34520507	     18.92596552	      6.18917463	    -21.64410042
      4.20000000	    -15.79806297	    -10.82114128	      5.86524048	     -1.85549987	     -0.04706027	     -0.29537572	     42.10870135	      8.25670111	    -16.48003171	    -31.75665215	      1.16494494	    -15.82355511	      3.27197635	     12.60638425	    -16.32969058	     -3.32273823	    -51.03512378	    -22.28157139	      5.37581942	     28.33876480	     18.97094704	      6.29522335	    -21.62553409
      4.20500000	    -15.87474724	    -10.96560439	      5.77490919	     -1.84919106	     -0.04672519	     -0.29490975	     41.75192700	      8.50872634	    -16.57193364	    -31.77720194	      1.78024559	    -15.46713919	      3.49208641	     13.69635432	    -16.50114563	     -3.12153256	    -52.63887196	    -21.78538553	      4.22852791	     26.65330981	     19.00697129	      6.50302785	    -21.41863441
      4.21000000	    -15.88013142	    -11.06354811	      5.71454120	     -1.84290097	     -0.04616985	     -0.29444417	     41.27997658	      8.74070236	    -16.62034442	    -31.72980219	      2.33334280	    -15.23782974	      3.63427762	     14.68254048	    -16.61040797	     -2.92866612	    -54.08607211	    -21.22734262	      2.85339769	     25.41997855	     18.96782196	      6.65681684	    -21.20671463
      4.21500000	    -15.85723049	    -11.10741534	      5.67329884	     -1.83663065	     -0.04543958	     -0.29395606	     40.74232576	      8.94788926	    -16.59991509	    -31.62039740	      2.80706055	    -15.15904931	      3.68664444	     15.61204887	    -16.65013317	     -2.75113640	    -55.38389561	    -20.65058726	      1.30529055	     24.58746286	     18.90170929	      6.74641351	    -20.98301412
